<svg xmlns="http://www.w3.org/2000/svg" viewBox="0 0 48 48">
  <path fill="#FFFFFF" fill-rule="evenodd" d="M8,8 L13.232,8 L14.736,11.2 L38.4,11.2 C39.28,11.2 40,11.92 40,12.8 C40,13.072 39.936,13.344 39.808,13.568 L34.08,23.952 C33.536,24.944 32.48,25.6 31.28,25.6 L19.36,25.6 L17.92,28.208 L17.872,28.4 C17.872,28.624 18.048,28.8 18.272,28.8 L36.8,28.8 L36.8,32 L17.6,32 C15.84,32 14.4,30.56 14.4,28.8 C14.4,28.24 14.544,27.712 14.8,27.264 L16.96,23.344 L11.2,11.2 L8,11.2 L8,8 Z M17.6,33.6 C19.36,33.6 20.8,35.04 20.8,36.8 C20.8,38.56 19.36,40 17.6,40 C15.84,40 14.416,38.56 14.416,36.8 C14.416,35.04 15.84,33.6 17.6,33.6 Z M30.416,36.8 C30.416,35.04 31.84,33.6 33.6,33.6 C35.36,33.6 36.8,35.04 36.8,36.8 C36.8,38.56 35.36,40 33.6,40 C31.84,40 30.416,38.56 30.416,36.8 Z"/>
</svg>
