<svg xmlns="http://www.w3.org/2000/svg" width="12.543" height="12.517" viewBox="0 0 12.543 12.517"><defs><style>.a,.b{fill:none;}.b{stroke:#ffffff;stroke-width:1.5px;}.c,.d{stroke:none;}.d{fill:#ffffff;}</style></defs><g class="a"><path class="c" d="M5.065,0a5.065,5.065,0,0,1,5.065,5.065A5.162,5.162,0,0,1,8.647,8.647a4.942,4.942,0,0,1-3.582,1.484A5.065,5.065,0,0,1,5.065,0Z"/><path class="d" d="M 5.065339088439941 1.499999046325684 C 3.099399089813232 1.499999046325684 1.499999046325684 3.099399089813232 1.499999046325684 5.065339088439941 C 1.499999046325684 7.03127908706665 3.099399089813232 8.630679130554199 5.065339088439941 8.630679130554199 C 6.214069366455078 8.630679130554199 7.098669052124023 8.114349365234375 7.5434889793396 7.631149291992188 L 7.54642915725708 7.627959251403809 L 7.549388885498047 7.624778747558594 C 8.276988983154297 6.84351921081543 8.630679130554199 6.006319046020508 8.630679130554199 5.065339088439941 C 8.630679130554199 3.099399089813232 7.03127908706665 1.499999046325684 5.065339088439941 1.499999046325684 M 5.065339088439941 -9.5367431640625e-07 C 7.862849235534668 -9.5367431640625e-07 10.1306791305542 2.267828941345215 10.1306791305542 5.065339088439941 C 10.1306791305542 6.394148826599121 9.619009017944336 7.603448867797852 8.647079467773438 8.647068977355957 C 7.856749057769775 9.505599021911621 6.53403902053833 10.1306791305542 5.065339088439941 10.1306791305542 C 2.267828941345215 10.1306791305542 -9.5367431640625e-07 7.862849235534668 -9.5367431640625e-07 5.065339088439941 C -9.5367431640625e-07 2.267828941345215 2.267828941345215 -9.5367431640625e-07 5.065339088439941 -9.5367431640625e-07 Z"/></g><path class="b" d="M13.952,12.742l3.438,3.606" transform="translate(-5.39 -4.348)"/></svg>