<?xml version="1.0" encoding="iso-8859-1"?>
<!-- Generator: Adobe Illustrator 19.0.0, SVG Export Plug-In . SVG Version: 6.00 Build 0)  -->
<svg version="1.1" id="Capa_1" xmlns="http://www.w3.org/2000/svg" xmlns:xlink="http://www.w3.org/1999/xlink" x="0px" y="0px"
	 viewBox="0 0 512 512" style="enable-background:new 0 0 512 512;" xml:space="preserve">
<g>
	<g>
		<path style="fill: #ffffff;" d="M480,32H32C14.368,32,0,46.368,0,64v176c0,132.352,107.648,240,240,240h32c132.352,0,240-107.648,240-240V64
			C512,46.368,497.664,32,480,32z M406.624,214.624l-128,128C272.384,348.864,264.192,352,256,352s-16.384-3.136-22.624-9.376
			l-128-128c-12.512-12.512-12.512-32.736,0-45.248c12.512-12.512,32.736-12.512,45.248,0L256,274.752l105.376-105.376
			c12.512-12.512,32.736-12.512,45.248,0C419.136,181.888,419.136,202.112,406.624,214.624z"/>
	</g>
</g>
<g>
</g>
<g>
</g>
<g>
</g>
<g>
</g>
<g>
</g>
<g>
</g>
<g>
</g>
<g>
</g>
<g>
</g>
<g>
</g>
<g>
</g>
<g>
</g>
<g>
</g>
<g>
</g>
<g>
</g>
</svg>
